<svg width="30" height="30" viewBox="0 0 30 30" fill="none" xmlns="http://www.w3.org/2000/svg">
<path d="M20.6864 15L29.2151 6.47131C30.2616 5.42472 30.2616 3.72784 29.2151 2.6804L27.3196 0.784943C26.273 -0.261648 24.5761 -0.261648 23.5287 0.784943L15 9.31364L6.47131 0.784943C5.42472 -0.261648 3.72784 -0.261648 2.6804 0.784943L0.784943 2.6804C-0.261648 3.72699 -0.261648 5.42386 0.784943 6.47131L9.31364 15L0.784943 23.5287C-0.261648 24.5753 -0.261648 26.2722 0.784943 27.3196L2.6804 29.2151C3.72699 30.2616 5.42472 30.2616 6.47131 29.2151L15 20.6864L23.5287 29.2151C24.5753 30.2616 26.273 30.2616 27.3196 29.2151L29.2151 27.3196C30.2616 26.273 30.2616 24.5761 29.2151 23.5287L20.6864 15Z" fill="#F7ECDE"/>
</svg>
