<svg width="30" height="27" viewBox="0 0 30 27" fill="none" xmlns="http://www.w3.org/2000/svg">
<path d="M1.07143 4.82143H28.9286C29.5203 4.82143 30 4.34176 30 3.75V1.07143C30 0.479665 29.5203 0 28.9286 0H1.07143C0.479665 0 0 0.479665 0 1.07143V3.75C0 4.34176 0.479665 4.82143 1.07143 4.82143ZM1.07143 15.5357H28.9286C29.5203 15.5357 30 15.0561 30 14.4643V11.7857C30 11.194 29.5203 10.7143 28.9286 10.7143H1.07143C0.479665 10.7143 0 11.194 0 11.7857V14.4643C0 15.0561 0.479665 15.5357 1.07143 15.5357ZM1.07143 26.25H28.9286C29.5203 26.25 30 25.7703 30 25.1786V22.5C30 21.9082 29.5203 21.4286 28.9286 21.4286H1.07143C0.479665 21.4286 0 21.9082 0 22.5V25.1786C0 25.7703 0.479665 26.25 1.07143 26.25Z" fill="#3D8887"/>
</svg>
